<svg viewBox="0 0 11 15">
	<defs>
		<linearGradient x1="50%" y1="0%" x2="50%" y2="100%" id="aixLine">
			<stop stop-color="#17cf54" offset="0%"></stop>
			<stop stop-color="#00bdcc" offset="14.2857142%"></stop>
			<stop stop-color="#5c7eff" offset="28.5714285%"></stop>
			<stop stop-color="#a064f7" offset="42.8571428%"></stop>
			<stop stop-color="#ef4ea3" offset="57.1428571%"></stop>
			<stop stop-color="#ff5c5c" offset="71.4285714%"></stop>
			<stop stop-color="#f9994a" offset="85.7142857%"></stop>
			<stop stop-color="#d0bc25" offset="100%"></stop>
		</linearGradient>
	</defs>
	<path fill="url(#aixLine)" d="M2.2666666,-3.01980663e-14 L5.2763333,5.643 L7.6333833,2.5 L10.1332833,2.5 L6.3143333,7.591 L10.2666666,15 L8,15 L4.9903333,9.357 L2.6333833,12.5 L0.1333833,12.5 L3.9513333,7.41 L0,-3.01980663e-14 L2.2666666,-3.01980663e-14 Z M2.026,0.4 L0.666,0.4 L4.30428766,7.22178943 L4.42405624,7.44639341 L4.27131972,7.6500181 L0.933,12.1 L2.433,12.1 L4.67031864,9.11701955 L5.04745238,8.61411056 L5.34327274,9.16876146 L8.239,14.6 L9.599,14.6 L5.96140927,7.77926743 L5.84157904,7.55463502 L5.99435442,7.35097184 L9.332,2.9 L7.832,2.9 L5.59634307,5.88298697 L5.21920757,6.38587697 L4.92339386,5.83123854 L2.026,0.4 Z"></path>
</svg>
